<svg width="17" height="13" viewBox="0 0 17 13" fill="none" xmlns="http://www.w3.org/2000/svg">
<path d="M6.04972 9.65L14.5247 1.175C14.7247 0.975 14.9622 0.875 15.2372 0.875C15.5122 0.875 15.7497 0.975 15.9497 1.175C16.1497 1.375 16.2497 1.6125 16.2497 1.8875C16.2497 2.1625 16.1497 2.4 15.9497 2.6L6.74972 11.8C6.54972 12 6.31639 12.1 6.04972 12.1C5.78305 12.1 5.54972 12 5.34972 11.8L1.04972 7.5C0.849719 7.3 0.753885 7.0625 0.762219 6.7875C0.770552 6.5125 0.874719 6.275 1.07472 6.075C1.27472 5.875 1.51222 5.775 1.78722 5.775C2.06222 5.775 2.29972 5.875 2.49972 6.075L6.04972 9.65Z" fill="white"/>
</svg>
